<mxfile host="Electron" agent="Mozilla/5.0 (Windows NT 10.0; Win64; x64) AppleWebKit/537.36 (KHTML, like Gecko) draw.io/27.0.2 Chrome/134.0.6998.205 Electron/35.3.0 Safari/537.36" version="27.0.2" pages="4">
  <diagram name="第 1 页" id="URT6j8gl45Uz0jge5Giq">
    <mxGraphModel dx="2334" dy="518" grid="1" gridSize="10" guides="1" tooltips="1" connect="1" arrows="1" fold="1" page="1" pageScale="1" pageWidth="1654" pageHeight="2336" math="0" shadow="0">
      <root>
        <mxCell id="0" />
        <mxCell id="1" parent="0" />
        <mxCell id="Gufo-D4RydAcwqzmuS1q-1" value="&lt;b&gt;多agent&amp;nbsp; github readme 做摘要&lt;/b&gt;" style="text;html=1;align=center;verticalAlign=middle;resizable=0;points=[];autosize=1;strokeColor=none;fillColor=none;" vertex="1" parent="1">
          <mxGeometry x="-1360" y="240" width="190" height="30" as="geometry" />
        </mxCell>
        <mxCell id="BQhQ5aEvd39HQjGkQrqZ-5" value="&lt;b&gt;自然语言与code的双向同步&lt;/b&gt;" style="text;html=1;align=center;verticalAlign=middle;resizable=0;points=[];autosize=1;strokeColor=none;fillColor=none;" vertex="1" parent="1">
          <mxGeometry x="-1360" y="280" width="170" height="30" as="geometry" />
        </mxCell>
        <mxCell id="BQhQ5aEvd39HQjGkQrqZ-6" value="&lt;b&gt;用bertopic方法从stack overflow的帖子中 摘要api文档&lt;/b&gt;" style="text;html=1;align=center;verticalAlign=middle;resizable=0;points=[];autosize=1;strokeColor=none;fillColor=none;" vertex="1" parent="1">
          <mxGeometry x="-1360" y="320" width="320" height="30" as="geometry" />
        </mxCell>
        <mxCell id="BQhQ5aEvd39HQjGkQrqZ-7" value="&lt;b&gt;多agent 安全代码review&lt;/b&gt;" style="text;html=1;align=center;verticalAlign=middle;resizable=0;points=[];autosize=1;strokeColor=none;fillColor=none;" vertex="1" parent="1">
          <mxGeometry x="-1360" y="360" width="160" height="30" as="geometry" />
        </mxCell>
        <mxCell id="BQhQ5aEvd39HQjGkQrqZ-8" value="&lt;b&gt;多agent自动软件架构设计&lt;/b&gt;" style="text;html=1;align=center;verticalAlign=middle;resizable=0;points=[];autosize=1;strokeColor=none;fillColor=none;" vertex="1" parent="1">
          <mxGeometry x="-1360" y="400" width="160" height="30" as="geometry" />
        </mxCell>
        <mxCell id="BQhQ5aEvd39HQjGkQrqZ-9" value="&lt;b&gt;使用llm帮助整理 code search的信息，从而辅助code review&lt;/b&gt;" style="text;html=1;align=center;verticalAlign=middle;resizable=0;points=[];autosize=1;strokeColor=none;fillColor=none;" vertex="1" parent="1">
          <mxGeometry x="-1360" y="440" width="350" height="30" as="geometry" />
        </mxCell>
        <mxCell id="BQhQ5aEvd39HQjGkQrqZ-10" value="&lt;b&gt;code llm 针对相同prompt返回不同code的不确定性研究&lt;/b&gt;" style="text;html=1;align=center;verticalAlign=middle;resizable=0;points=[];autosize=1;strokeColor=none;fillColor=none;" vertex="1" parent="1">
          <mxGeometry x="-1360" y="480" width="320" height="30" as="geometry" />
        </mxCell>
        <mxCell id="BQhQ5aEvd39HQjGkQrqZ-11" value="&lt;b&gt;基于llm 根据函数描述生成 method name&lt;/b&gt;" style="text;html=1;align=center;verticalAlign=middle;resizable=0;points=[];autosize=1;strokeColor=none;fillColor=none;" vertex="1" parent="1">
          <mxGeometry x="-1360" y="519" width="240" height="30" as="geometry" />
        </mxCell>
        <mxCell id="BQhQ5aEvd39HQjGkQrqZ-12" value="&lt;b&gt;sigsoft impact award&amp;nbsp; 现代code review的期望、结果、挑战&lt;/b&gt;" style="text;html=1;align=center;verticalAlign=middle;resizable=0;points=[];autosize=1;strokeColor=none;fillColor=none;" vertex="1" parent="1">
          <mxGeometry x="-1360" y="559" width="350" height="30" as="geometry" />
        </mxCell>
        <mxCell id="BQhQ5aEvd39HQjGkQrqZ-13" value="&lt;b&gt;了解开发人员如何构建 包含llm prompt的软件&lt;/b&gt;" style="text;html=1;align=center;verticalAlign=middle;resizable=0;points=[];autosize=1;strokeColor=none;fillColor=none;" vertex="1" parent="1">
          <mxGeometry x="-1360" y="599" width="270" height="30" as="geometry" />
        </mxCell>
        <mxCell id="BQhQ5aEvd39HQjGkQrqZ-14" value="&lt;b&gt;codellm-devkit 一个代码库，将各种复杂的静态分析与llm结合，从而用静态分析摘取上下文信息送入llm&lt;/b&gt;" style="text;html=1;align=center;verticalAlign=middle;resizable=0;points=[];autosize=1;strokeColor=none;fillColor=none;" vertex="1" parent="1">
          <mxGeometry x="-1360" y="639" width="570" height="30" as="geometry" />
        </mxCell>
        <mxCell id="BQhQ5aEvd39HQjGkQrqZ-15" value="&lt;b&gt;超越peft，逐层微调code llm&lt;/b&gt;" style="text;html=1;align=center;verticalAlign=middle;resizable=0;points=[];autosize=1;strokeColor=none;fillColor=none;" vertex="1" parent="1">
          <mxGeometry x="-1360" y="679" width="180" height="30" as="geometry" />
        </mxCell>
        <mxCell id="BQhQ5aEvd39HQjGkQrqZ-16" value="&lt;b&gt;利用llm&amp;nbsp; 增强debug&lt;/b&gt;" style="text;html=1;align=center;verticalAlign=middle;resizable=0;points=[];autosize=1;strokeColor=none;fillColor=none;" vertex="1" parent="1">
          <mxGeometry x="-1360" y="719" width="130" height="30" as="geometry" />
        </mxCell>
        <mxCell id="BQhQ5aEvd39HQjGkQrqZ-17" value="&lt;b&gt;多agent 加强debug，自适应agent设计，agent数量和角色由任务复杂度决定&lt;/b&gt;" style="text;html=1;align=center;verticalAlign=middle;resizable=0;points=[];autosize=1;strokeColor=none;fillColor=none;" vertex="1" parent="1">
          <mxGeometry x="-1360" y="759" width="430" height="30" as="geometry" />
        </mxCell>
        <mxCell id="BQhQ5aEvd39HQjGkQrqZ-18" value="&lt;b&gt;基于rag、cot的多agent 新人入职系统&lt;/b&gt;" style="text;html=1;align=center;verticalAlign=middle;resizable=0;points=[];autosize=1;strokeColor=none;fillColor=none;" vertex="1" parent="1">
          <mxGeometry x="-1360" y="799" width="230" height="30" as="geometry" />
        </mxCell>
        <mxCell id="BQhQ5aEvd39HQjGkQrqZ-20" value="&lt;b&gt;基于agent的&amp;nbsp; &amp;nbsp;由issue descriptions进行 bug reproduce&lt;/b&gt;" style="text;html=1;align=center;verticalAlign=middle;resizable=0;points=[];autosize=1;strokeColor=none;fillColor=none;" vertex="1" parent="1">
          <mxGeometry x="-1360" y="839" width="330" height="30" as="geometry" />
        </mxCell>
        <mxCell id="BQhQ5aEvd39HQjGkQrqZ-21" value="&lt;b&gt;结合llm与程序分析 进行自动化程序修补&lt;/b&gt;" style="text;html=1;align=center;verticalAlign=middle;resizable=0;points=[];autosize=1;strokeColor=none;fillColor=none;" vertex="1" parent="1">
          <mxGeometry x="-1360" y="879" width="230" height="30" as="geometry" />
        </mxCell>
        <mxCell id="BQhQ5aEvd39HQjGkQrqZ-22" value="&lt;b&gt;软件工程中的ai的感知角色及其影响，是将ai视作：工具还是队友？助理还是顾问？&lt;/b&gt;" style="text;html=1;align=center;verticalAlign=middle;resizable=0;points=[];autosize=1;strokeColor=none;fillColor=none;" vertex="1" parent="1">
          <mxGeometry x="-1360" y="919" width="460" height="30" as="geometry" />
        </mxCell>
        <mxCell id="BQhQ5aEvd39HQjGkQrqZ-24" value="&lt;b&gt;llm总结教学内容、llm担任建筑运营、虚拟助手&lt;/b&gt;" style="text;html=1;align=center;verticalAlign=middle;resizable=0;points=[];autosize=1;strokeColor=none;fillColor=none;" vertex="1" parent="1">
          <mxGeometry x="-1360" y="958" width="270" height="30" as="geometry" />
        </mxCell>
        <mxCell id="BQhQ5aEvd39HQjGkQrqZ-25" value="&lt;b&gt;基于 推断程序意图的 repair，agent分为推理、测试、修复&lt;/b&gt;" style="text;html=1;align=center;verticalAlign=middle;resizable=0;points=[];autosize=1;strokeColor=none;fillColor=none;" vertex="1" parent="1">
          <mxGeometry x="-1360" y="998" width="340" height="30" as="geometry" />
        </mxCell>
        <mxCell id="BQhQ5aEvd39HQjGkQrqZ-26" value="&lt;b&gt;ClassEval-T，llm的类级别代码翻译 基准数据集&lt;/b&gt;" style="text;html=1;align=center;verticalAlign=middle;resizable=0;points=[];autosize=1;strokeColor=none;fillColor=none;" vertex="1" parent="1">
          <mxGeometry x="-1360" y="1038" width="280" height="30" as="geometry" />
        </mxCell>
        <mxCell id="BQhQ5aEvd39HQjGkQrqZ-28" value="&lt;b&gt;单元测试上、对llm性能、影响、微调与prompt有效性的研究&lt;/b&gt;" style="text;html=1;align=center;verticalAlign=middle;resizable=0;points=[];autosize=1;strokeColor=none;fillColor=none;" vertex="1" parent="1">
          <mxGeometry x="-1360" y="1078" width="340" height="30" as="geometry" />
        </mxCell>
        <mxCell id="BQhQ5aEvd39HQjGkQrqZ-29" value="&lt;b&gt;迭代的基于示例进行代码生成的llm评估，第一个prompt很重要&lt;/b&gt;" style="text;html=1;align=center;verticalAlign=middle;resizable=0;points=[];autosize=1;strokeColor=none;fillColor=none;" vertex="1" parent="1">
          <mxGeometry x="-1360" y="1118" width="360" height="30" as="geometry" />
        </mxCell>
        <mxCell id="BQhQ5aEvd39HQjGkQrqZ-31" value="&lt;b&gt;基于大型语言模型的代码生成的因果关系辅助评估和解释&lt;/b&gt;" style="text;html=1;align=center;verticalAlign=middle;resizable=0;points=[];autosize=1;strokeColor=none;fillColor=none;" vertex="1" parent="1">
          <mxGeometry x="-1360" y="1158" width="320" height="30" as="geometry" />
        </mxCell>
        <mxCell id="BQhQ5aEvd39HQjGkQrqZ-34" value="&lt;b&gt;代码编辑应用的多语言基准测试&lt;/b&gt;" style="text;html=1;align=center;verticalAlign=middle;resizable=0;points=[];autosize=1;strokeColor=none;fillColor=none;fontFamily=Helvetica;fontSize=12;fontColor=default;" vertex="1" parent="1">
          <mxGeometry x="-1365" y="1198" width="190" height="30" as="geometry" />
        </mxCell>
        <mxCell id="lHpjMCoDcxJbwfLNSjg6-1" value="&lt;b&gt;用于bug定位的知识增强llm&lt;/b&gt;" style="text;html=1;align=center;verticalAlign=middle;resizable=0;points=[];autosize=1;strokeColor=none;fillColor=none;fontFamily=Helvetica;fontSize=12;fontColor=default;" vertex="1" parent="1">
          <mxGeometry x="-1365" y="1228" width="170" height="30" as="geometry" />
        </mxCell>
      </root>
    </mxGraphModel>
  </diagram>
  <diagram id="XjUBuHKHPR50wp-2Bim8" name="第 2 页">
    <mxGraphModel dx="2402" dy="570" grid="1" gridSize="10" guides="1" tooltips="1" connect="1" arrows="1" fold="1" page="1" pageScale="1" pageWidth="1654" pageHeight="2336" math="0" shadow="0">
      <root>
        <mxCell id="0" />
        <mxCell id="1" parent="0" />
        <mxCell id="SJVF8KnVz2PobAMfyVqW-1" value="&lt;b&gt;多agent&amp;nbsp; github readme 做摘要&lt;/b&gt;" style="text;html=1;align=center;verticalAlign=middle;resizable=0;points=[];autosize=1;strokeColor=none;fillColor=none;" vertex="1" parent="1">
          <mxGeometry x="-1360" y="240" width="190" height="30" as="geometry" />
        </mxCell>
        <mxCell id="SJVF8KnVz2PobAMfyVqW-2" value="&lt;b&gt;自然语言与code的双向同步&lt;/b&gt;" style="text;html=1;align=center;verticalAlign=middle;resizable=0;points=[];autosize=1;strokeColor=none;fillColor=none;" vertex="1" parent="1">
          <mxGeometry x="-1360" y="280" width="170" height="30" as="geometry" />
        </mxCell>
        <mxCell id="SJVF8KnVz2PobAMfyVqW-3" value="&lt;b&gt;用bertopic方法从stack overflow的帖子中 摘要api文档&lt;/b&gt;" style="text;html=1;align=center;verticalAlign=middle;resizable=0;points=[];autosize=1;strokeColor=none;fillColor=none;" vertex="1" parent="1">
          <mxGeometry x="-1360" y="320" width="320" height="30" as="geometry" />
        </mxCell>
        <mxCell id="SJVF8KnVz2PobAMfyVqW-4" value="&lt;b&gt;多agent 安全代码review&lt;/b&gt;" style="text;html=1;align=center;verticalAlign=middle;resizable=0;points=[];autosize=1;strokeColor=none;fillColor=none;" vertex="1" parent="1">
          <mxGeometry x="-1360" y="360" width="160" height="30" as="geometry" />
        </mxCell>
        <mxCell id="SJVF8KnVz2PobAMfyVqW-5" value="&lt;b&gt;多agent自动软件架构设计&lt;/b&gt;" style="text;html=1;align=center;verticalAlign=middle;resizable=0;points=[];autosize=1;strokeColor=none;fillColor=none;" vertex="1" parent="1">
          <mxGeometry x="-1360" y="400" width="160" height="30" as="geometry" />
        </mxCell>
        <mxCell id="SJVF8KnVz2PobAMfyVqW-6" value="&lt;b&gt;使用llm帮助整理 code search的信息，从而辅助code review&lt;/b&gt;" style="text;html=1;align=center;verticalAlign=middle;resizable=0;points=[];autosize=1;strokeColor=none;fillColor=none;" vertex="1" parent="1">
          <mxGeometry x="-1360" y="440" width="350" height="30" as="geometry" />
        </mxCell>
        <mxCell id="SJVF8KnVz2PobAMfyVqW-7" value="&lt;b&gt;code llm 针对相同prompt返回不同code的不确定性研究&lt;/b&gt;" style="text;html=1;align=center;verticalAlign=middle;resizable=0;points=[];autosize=1;strokeColor=none;fillColor=none;" vertex="1" parent="1">
          <mxGeometry x="-1360" y="480" width="320" height="30" as="geometry" />
        </mxCell>
        <mxCell id="SJVF8KnVz2PobAMfyVqW-8" value="&lt;b&gt;基于llm 根据函数描述生成 method name&lt;/b&gt;" style="text;html=1;align=center;verticalAlign=middle;resizable=0;points=[];autosize=1;strokeColor=none;fillColor=none;" vertex="1" parent="1">
          <mxGeometry x="-1360" y="519" width="240" height="30" as="geometry" />
        </mxCell>
        <mxCell id="SJVF8KnVz2PobAMfyVqW-9" value="&lt;b&gt;sigsoft impact award&amp;nbsp; 现代code review的期望、结果、挑战&lt;/b&gt;" style="text;html=1;align=center;verticalAlign=middle;resizable=0;points=[];autosize=1;strokeColor=none;fillColor=none;" vertex="1" parent="1">
          <mxGeometry x="-1360" y="559" width="350" height="30" as="geometry" />
        </mxCell>
        <mxCell id="SJVF8KnVz2PobAMfyVqW-10" value="&lt;b&gt;了解开发人员如何构建 包含llm prompt的软件&lt;/b&gt;" style="text;html=1;align=center;verticalAlign=middle;resizable=0;points=[];autosize=1;strokeColor=none;fillColor=none;" vertex="1" parent="1">
          <mxGeometry x="-1360" y="599" width="270" height="30" as="geometry" />
        </mxCell>
        <mxCell id="SJVF8KnVz2PobAMfyVqW-11" value="&lt;b&gt;codellm-devkit 一个代码库，将各种复杂的静态分析与llm结合，从而用静态分析摘取上下文信息送入llm&lt;/b&gt;" style="text;html=1;align=center;verticalAlign=middle;resizable=0;points=[];autosize=1;strokeColor=none;fillColor=none;" vertex="1" parent="1">
          <mxGeometry x="-1360" y="639" width="570" height="30" as="geometry" />
        </mxCell>
        <mxCell id="SJVF8KnVz2PobAMfyVqW-12" value="&lt;b&gt;超越peft，逐层微调code llm&lt;/b&gt;" style="text;html=1;align=center;verticalAlign=middle;resizable=0;points=[];autosize=1;strokeColor=none;fillColor=none;" vertex="1" parent="1">
          <mxGeometry x="-1360" y="679" width="180" height="30" as="geometry" />
        </mxCell>
        <mxCell id="SJVF8KnVz2PobAMfyVqW-13" value="&lt;b&gt;利用llm&amp;nbsp; 增强debug&lt;/b&gt;" style="text;html=1;align=center;verticalAlign=middle;resizable=0;points=[];autosize=1;strokeColor=none;fillColor=none;" vertex="1" parent="1">
          <mxGeometry x="-1360" y="719" width="130" height="30" as="geometry" />
        </mxCell>
        <mxCell id="SJVF8KnVz2PobAMfyVqW-14" value="&lt;b&gt;多agent 加强debug，自适应agent设计，agent数量和角色由任务复杂度决定&lt;/b&gt;" style="text;html=1;align=center;verticalAlign=middle;resizable=0;points=[];autosize=1;strokeColor=none;fillColor=none;" vertex="1" parent="1">
          <mxGeometry x="-1360" y="759" width="430" height="30" as="geometry" />
        </mxCell>
        <mxCell id="SJVF8KnVz2PobAMfyVqW-15" value="&lt;b&gt;基于rag、cot的多agent 新人入职系统&lt;/b&gt;" style="text;html=1;align=center;verticalAlign=middle;resizable=0;points=[];autosize=1;strokeColor=none;fillColor=none;" vertex="1" parent="1">
          <mxGeometry x="-1360" y="799" width="230" height="30" as="geometry" />
        </mxCell>
        <mxCell id="SJVF8KnVz2PobAMfyVqW-16" value="&lt;b&gt;基于agent的&amp;nbsp; &amp;nbsp;由issue descriptions进行 bug reproduce&lt;/b&gt;" style="text;html=1;align=center;verticalAlign=middle;resizable=0;points=[];autosize=1;strokeColor=none;fillColor=none;" vertex="1" parent="1">
          <mxGeometry x="-1360" y="839" width="330" height="30" as="geometry" />
        </mxCell>
        <mxCell id="SJVF8KnVz2PobAMfyVqW-17" value="&lt;b&gt;结合llm与程序分析 进行自动化程序修补&lt;/b&gt;" style="text;html=1;align=center;verticalAlign=middle;resizable=0;points=[];autosize=1;strokeColor=none;fillColor=none;" vertex="1" parent="1">
          <mxGeometry x="-1360" y="879" width="230" height="30" as="geometry" />
        </mxCell>
        <mxCell id="SJVF8KnVz2PobAMfyVqW-18" value="&lt;b&gt;软件工程中的ai的感知角色及其影响，是将ai视作：工具还是队友？助理还是顾问？&lt;/b&gt;" style="text;html=1;align=center;verticalAlign=middle;resizable=0;points=[];autosize=1;strokeColor=none;fillColor=none;" vertex="1" parent="1">
          <mxGeometry x="-1360" y="919" width="460" height="30" as="geometry" />
        </mxCell>
        <mxCell id="SJVF8KnVz2PobAMfyVqW-19" value="&lt;b&gt;llm总结教学内容、llm担任建筑运营、虚拟助手&lt;/b&gt;" style="text;html=1;align=center;verticalAlign=middle;resizable=0;points=[];autosize=1;strokeColor=none;fillColor=none;" vertex="1" parent="1">
          <mxGeometry x="-1360" y="958" width="270" height="30" as="geometry" />
        </mxCell>
        <mxCell id="SJVF8KnVz2PobAMfyVqW-20" value="&lt;b&gt;基于 推断程序意图的 repair，agent分为推理、测试、修复&lt;/b&gt;" style="text;html=1;align=center;verticalAlign=middle;resizable=0;points=[];autosize=1;strokeColor=none;fillColor=none;" vertex="1" parent="1">
          <mxGeometry x="-1360" y="998" width="340" height="30" as="geometry" />
        </mxCell>
        <mxCell id="SJVF8KnVz2PobAMfyVqW-21" value="&lt;b&gt;ClassEval-T，llm的类级别代码翻译 基准数据集&lt;/b&gt;" style="text;html=1;align=center;verticalAlign=middle;resizable=0;points=[];autosize=1;strokeColor=none;fillColor=none;" vertex="1" parent="1">
          <mxGeometry x="-1360" y="1038" width="280" height="30" as="geometry" />
        </mxCell>
        <mxCell id="SJVF8KnVz2PobAMfyVqW-22" value="&lt;b&gt;单元测试上、对llm性能、影响、微调与prompt有效性的研究&lt;/b&gt;" style="text;html=1;align=center;verticalAlign=middle;resizable=0;points=[];autosize=1;strokeColor=none;fillColor=none;" vertex="1" parent="1">
          <mxGeometry x="-1360" y="1078" width="340" height="30" as="geometry" />
        </mxCell>
        <mxCell id="SJVF8KnVz2PobAMfyVqW-23" value="&lt;b&gt;迭代的基于示例进行代码生成的llm评估，第一个prompt很重要&lt;/b&gt;" style="text;html=1;align=center;verticalAlign=middle;resizable=0;points=[];autosize=1;strokeColor=none;fillColor=none;" vertex="1" parent="1">
          <mxGeometry x="-1360" y="1118" width="360" height="30" as="geometry" />
        </mxCell>
        <mxCell id="SJVF8KnVz2PobAMfyVqW-24" value="&lt;b&gt;基于大型语言模型的代码生成的因果关系辅助评估和解释&lt;/b&gt;" style="text;html=1;align=center;verticalAlign=middle;resizable=0;points=[];autosize=1;strokeColor=none;fillColor=none;" vertex="1" parent="1">
          <mxGeometry x="-1360" y="1158" width="320" height="30" as="geometry" />
        </mxCell>
        <mxCell id="SJVF8KnVz2PobAMfyVqW-25" value="&lt;b&gt;代码编辑应用的多语言基准测试&lt;/b&gt;" style="text;html=1;align=center;verticalAlign=middle;resizable=0;points=[];autosize=1;strokeColor=none;fillColor=none;fontFamily=Helvetica;fontSize=12;fontColor=default;" vertex="1" parent="1">
          <mxGeometry x="-1365" y="1198" width="190" height="30" as="geometry" />
        </mxCell>
        <mxCell id="SJVF8KnVz2PobAMfyVqW-26" value="&lt;b&gt;&lt;font style=&quot;font-size: 14px;&quot;&gt;summerization&lt;/font&gt;&lt;/b&gt;" style="text;html=1;align=center;verticalAlign=middle;resizable=0;points=[];autosize=1;strokeColor=none;fillColor=none;fontFamily=Helvetica;fontSize=12;fontColor=default;" vertex="1" parent="1">
          <mxGeometry x="-1260" y="1595" width="130" height="30" as="geometry" />
        </mxCell>
        <mxCell id="SJVF8KnVz2PobAMfyVqW-28" value="&lt;b&gt;用于bug定位的知识增强llm&lt;/b&gt;" style="text;html=1;align=center;verticalAlign=middle;resizable=0;points=[];autosize=1;strokeColor=none;fillColor=none;fontFamily=Helvetica;fontSize=12;fontColor=default;" vertex="1" parent="1">
          <mxGeometry x="-1365" y="1228" width="170" height="30" as="geometry" />
        </mxCell>
        <mxCell id="SJVF8KnVz2PobAMfyVqW-29" value="&lt;em style=&quot;box-sizing: border-box; transition: 0.2s ease-in-out; color: rgb(73, 78, 82); font-family: -apple-system, &amp;quot;.SFNSText-Regular&amp;quot;, &amp;quot;San Francisco&amp;quot;, Roboto, &amp;quot;Segoe UI&amp;quot;, &amp;quot;Helvetica Neue&amp;quot;, &amp;quot;Lucida Grande&amp;quot;, Arial, sans-serif; font-variant-ligatures: normal; font-variant-caps: normal; letter-spacing: normal; orphans: 3; text-align: start; text-indent: 0px; text-transform: none; widows: 3; word-spacing: 0px; -webkit-text-stroke-width: 0px; white-space: normal; background-color: rgb(255, 255, 255); text-decoration-thickness: initial; text-decoration-style: initial; text-decoration-color: initial;&quot;&gt;&lt;b style=&quot;&quot;&gt;&lt;font style=&quot;font-size: 15px;&quot;&gt;Source code understanding&amp;nbsp;&lt;/font&gt;&lt;/b&gt;&lt;/em&gt;" style="text;whiteSpace=wrap;html=1;fontFamily=Helvetica;fontSize=12;fontColor=default;autosize=1;resizable=0;" vertex="1" parent="1">
          <mxGeometry x="-1460" y="1595" width="220" height="30" as="geometry" />
        </mxCell>
        <mxCell id="SJVF8KnVz2PobAMfyVqW-31" value="&lt;b&gt;&lt;font style=&quot;font-size: 14px;&quot;&gt;generation&lt;/font&gt;&lt;/b&gt;" style="text;html=1;align=center;verticalAlign=middle;resizable=0;points=[];autosize=1;strokeColor=none;fillColor=none;fontFamily=Helvetica;fontSize=12;fontColor=default;" vertex="1" parent="1">
          <mxGeometry x="-1130" y="1595" width="100" height="30" as="geometry" />
        </mxCell>
        <mxCell id="SJVF8KnVz2PobAMfyVqW-32" value="&lt;b&gt;&lt;font style=&quot;font-size: 18px;&quot;&gt;multi-agent&lt;/font&gt;&lt;/b&gt;" style="text;html=1;align=center;verticalAlign=middle;resizable=0;points=[];autosize=1;strokeColor=none;fillColor=none;fontFamily=Helvetica;fontSize=12;fontColor=default;" vertex="1" parent="1">
          <mxGeometry x="-1360" y="1555" width="130" height="40" as="geometry" />
        </mxCell>
        <mxCell id="SJVF8KnVz2PobAMfyVqW-33" value="&lt;b&gt;&lt;font style=&quot;font-size: 10px;&quot;&gt;debug&lt;/font&gt;&lt;/b&gt;" style="text;html=1;align=center;verticalAlign=middle;resizable=0;points=[];autosize=1;strokeColor=none;fillColor=none;fontFamily=Helvetica;fontSize=12;fontColor=default;" vertex="1" parent="1">
          <mxGeometry x="-1220" y="1630" width="60" height="30" as="geometry" />
        </mxCell>
        <mxCell id="SJVF8KnVz2PobAMfyVqW-34" value="&lt;b&gt;&lt;font&gt;code review&amp;nbsp;&lt;/font&gt;&lt;/b&gt;" style="text;html=1;align=center;verticalAlign=middle;resizable=0;points=[];autosize=1;strokeColor=none;fillColor=none;fontFamily=Helvetica;fontSize=12;fontColor=default;" vertex="1" parent="1">
          <mxGeometry x="-1375" y="1630" width="100" height="30" as="geometry" />
        </mxCell>
        <mxCell id="SJVF8KnVz2PobAMfyVqW-35" value="&lt;b&gt;repair&lt;/b&gt;" style="text;html=1;align=center;verticalAlign=middle;resizable=0;points=[];autosize=1;strokeColor=none;fillColor=none;fontFamily=Helvetica;fontSize=12;fontColor=default;" vertex="1" parent="1">
          <mxGeometry x="-1275" y="1630" width="60" height="30" as="geometry" />
        </mxCell>
        <mxCell id="SJVF8KnVz2PobAMfyVqW-36" value="&lt;b&gt;bug&lt;/b&gt;" style="text;html=1;align=center;verticalAlign=middle;resizable=0;points=[];autosize=1;strokeColor=none;fillColor=none;fontFamily=Helvetica;fontSize=12;fontColor=default;" vertex="1" parent="1">
          <mxGeometry x="-1160" y="1630" width="50" height="30" as="geometry" />
        </mxCell>
        <mxCell id="SJVF8KnVz2PobAMfyVqW-37" value="&lt;b&gt;fine-tuning&amp;nbsp;&lt;/b&gt;" style="text;html=1;align=center;verticalAlign=middle;resizable=0;points=[];autosize=1;strokeColor=none;fillColor=none;fontFamily=Helvetica;fontSize=12;fontColor=default;" vertex="1" parent="1">
          <mxGeometry x="-1235" y="1560" width="90" height="30" as="geometry" />
        </mxCell>
        <mxCell id="SJVF8KnVz2PobAMfyVqW-38" value="&lt;b&gt;rag&lt;/b&gt;" style="text;html=1;align=center;verticalAlign=middle;resizable=0;points=[];autosize=1;strokeColor=none;fillColor=none;fontFamily=Helvetica;fontSize=12;fontColor=default;" vertex="1" parent="1">
          <mxGeometry x="-1145" y="1560" width="40" height="30" as="geometry" />
        </mxCell>
        <mxCell id="SJVF8KnVz2PobAMfyVqW-39" value="&lt;b&gt;search&lt;/b&gt;" style="text;html=1;align=center;verticalAlign=middle;resizable=0;points=[];autosize=1;strokeColor=none;fillColor=none;fontFamily=Helvetica;fontSize=12;fontColor=default;" vertex="1" parent="1">
          <mxGeometry x="-1110" y="1630" width="60" height="30" as="geometry" />
        </mxCell>
        <mxCell id="kMIKGCxBr8k3N00Cd6EC-1" value="&lt;b&gt;test&lt;/b&gt;" style="text;html=1;align=center;verticalAlign=middle;resizable=0;points=[];autosize=1;strokeColor=none;fillColor=none;fontFamily=Helvetica;fontSize=12;fontColor=default;" vertex="1" parent="1">
          <mxGeometry x="-1305" y="1658" width="50" height="30" as="geometry" />
        </mxCell>
      </root>
    </mxGraphModel>
  </diagram>
  <diagram id="hPFR6UCWmxSLEEA7x5DY" name="第 3 页">
    <mxGraphModel dx="2378" dy="547" grid="1" gridSize="10" guides="1" tooltips="1" connect="1" arrows="1" fold="1" page="1" pageScale="1" pageWidth="1654" pageHeight="2336" math="0" shadow="0">
      <root>
        <mxCell id="0" />
        <mxCell id="1" parent="0" />
        <mxCell id="7yw2NuGUajVDlQclCpUX-1" value="&lt;b&gt;&lt;font style=&quot;font-size: 14px;&quot;&gt;summerization&lt;/font&gt;&lt;/b&gt;" style="text;html=1;align=center;verticalAlign=middle;resizable=0;points=[];autosize=1;strokeColor=none;fillColor=none;fontFamily=Helvetica;fontSize=12;fontColor=default;" vertex="1" parent="1">
          <mxGeometry x="-1260" y="1595" width="130" height="30" as="geometry" />
        </mxCell>
        <mxCell id="7yw2NuGUajVDlQclCpUX-2" value="&lt;em style=&quot;box-sizing: border-box; transition: 0.2s ease-in-out; color: rgb(73, 78, 82); font-family: -apple-system, &amp;quot;.SFNSText-Regular&amp;quot;, &amp;quot;San Francisco&amp;quot;, Roboto, &amp;quot;Segoe UI&amp;quot;, &amp;quot;Helvetica Neue&amp;quot;, &amp;quot;Lucida Grande&amp;quot;, Arial, sans-serif; font-variant-ligatures: normal; font-variant-caps: normal; letter-spacing: normal; orphans: 3; text-align: start; text-indent: 0px; text-transform: none; widows: 3; word-spacing: 0px; -webkit-text-stroke-width: 0px; white-space: normal; background-color: rgb(255, 255, 255); text-decoration-thickness: initial; text-decoration-style: initial; text-decoration-color: initial;&quot;&gt;&lt;b style=&quot;&quot;&gt;&lt;font style=&quot;font-size: 15px;&quot;&gt;Source code understanding&amp;nbsp;&lt;/font&gt;&lt;/b&gt;&lt;/em&gt;" style="text;whiteSpace=wrap;html=1;fontFamily=Helvetica;fontSize=12;fontColor=default;autosize=1;resizable=0;" vertex="1" parent="1">
          <mxGeometry x="-1460" y="1595" width="220" height="30" as="geometry" />
        </mxCell>
        <mxCell id="7yw2NuGUajVDlQclCpUX-3" value="&lt;b&gt;&lt;font style=&quot;font-size: 14px;&quot;&gt;generation&lt;/font&gt;&lt;/b&gt;" style="text;html=1;align=center;verticalAlign=middle;resizable=0;points=[];autosize=1;strokeColor=none;fillColor=none;fontFamily=Helvetica;fontSize=12;fontColor=default;" vertex="1" parent="1">
          <mxGeometry x="-1130" y="1595" width="100" height="30" as="geometry" />
        </mxCell>
        <mxCell id="7yw2NuGUajVDlQclCpUX-4" value="&lt;b&gt;&lt;font style=&quot;font-size: 18px;&quot;&gt;multi-agent&lt;/font&gt;&lt;/b&gt;" style="text;html=1;align=center;verticalAlign=middle;resizable=0;points=[];autosize=1;strokeColor=none;fillColor=none;fontFamily=Helvetica;fontSize=12;fontColor=default;" vertex="1" parent="1">
          <mxGeometry x="-1360" y="1555" width="130" height="40" as="geometry" />
        </mxCell>
        <mxCell id="7yw2NuGUajVDlQclCpUX-5" value="&lt;b&gt;&lt;font style=&quot;font-size: 10px;&quot;&gt;debug&lt;/font&gt;&lt;/b&gt;" style="text;html=1;align=center;verticalAlign=middle;resizable=0;points=[];autosize=1;strokeColor=none;fillColor=none;fontFamily=Helvetica;fontSize=12;fontColor=default;" vertex="1" parent="1">
          <mxGeometry x="-1220" y="1630" width="60" height="30" as="geometry" />
        </mxCell>
        <mxCell id="7yw2NuGUajVDlQclCpUX-6" value="&lt;b&gt;&lt;font&gt;code review&amp;nbsp;&lt;/font&gt;&lt;/b&gt;" style="text;html=1;align=center;verticalAlign=middle;resizable=0;points=[];autosize=1;strokeColor=none;fillColor=none;fontFamily=Helvetica;fontSize=12;fontColor=default;" vertex="1" parent="1">
          <mxGeometry x="-1375" y="1630" width="100" height="30" as="geometry" />
        </mxCell>
        <mxCell id="7yw2NuGUajVDlQclCpUX-7" value="&lt;b&gt;repair&lt;/b&gt;" style="text;html=1;align=center;verticalAlign=middle;resizable=0;points=[];autosize=1;strokeColor=none;fillColor=none;fontFamily=Helvetica;fontSize=12;fontColor=default;" vertex="1" parent="1">
          <mxGeometry x="-1235" y="1658" width="60" height="30" as="geometry" />
        </mxCell>
        <mxCell id="7yw2NuGUajVDlQclCpUX-8" value="&lt;b&gt;bug&lt;/b&gt;" style="text;html=1;align=center;verticalAlign=middle;resizable=0;points=[];autosize=1;strokeColor=none;fillColor=none;fontFamily=Helvetica;fontSize=12;fontColor=default;" vertex="1" parent="1">
          <mxGeometry x="-1160" y="1630" width="50" height="30" as="geometry" />
        </mxCell>
        <mxCell id="7yw2NuGUajVDlQclCpUX-9" value="&lt;b&gt;fine-tuning&amp;nbsp;&lt;/b&gt;" style="text;html=1;align=center;verticalAlign=middle;resizable=0;points=[];autosize=1;strokeColor=none;fillColor=none;fontFamily=Helvetica;fontSize=12;fontColor=default;" vertex="1" parent="1">
          <mxGeometry x="-1235" y="1560" width="90" height="30" as="geometry" />
        </mxCell>
        <mxCell id="7yw2NuGUajVDlQclCpUX-10" value="&lt;b&gt;rag&lt;/b&gt;" style="text;html=1;align=center;verticalAlign=middle;resizable=0;points=[];autosize=1;strokeColor=none;fillColor=none;fontFamily=Helvetica;fontSize=12;fontColor=default;" vertex="1" parent="1">
          <mxGeometry x="-1145" y="1560" width="40" height="30" as="geometry" />
        </mxCell>
        <mxCell id="7yw2NuGUajVDlQclCpUX-11" value="&lt;b&gt;search&lt;/b&gt;" style="text;html=1;align=center;verticalAlign=middle;resizable=0;points=[];autosize=1;strokeColor=none;fillColor=none;fontFamily=Helvetica;fontSize=12;fontColor=default;" vertex="1" parent="1">
          <mxGeometry x="-1110" y="1630" width="60" height="30" as="geometry" />
        </mxCell>
        <mxCell id="7yw2NuGUajVDlQclCpUX-12" value="&lt;b&gt;test&lt;/b&gt;" style="text;html=1;align=center;verticalAlign=middle;resizable=0;points=[];autosize=1;strokeColor=none;fillColor=none;fontFamily=Helvetica;fontSize=12;fontColor=default;" vertex="1" parent="1">
          <mxGeometry x="-1280" y="1630" width="50" height="30" as="geometry" />
        </mxCell>
        <mxCell id="7yw2NuGUajVDlQclCpUX-13" value="&lt;b&gt;localization&lt;/b&gt;" style="text;html=1;align=center;verticalAlign=middle;resizable=0;points=[];autosize=1;strokeColor=none;fillColor=none;" vertex="1" parent="1">
          <mxGeometry x="-1325" y="1660" width="90" height="30" as="geometry" />
        </mxCell>
      </root>
    </mxGraphModel>
  </diagram>
  <diagram id="TxE7xiiBtayb0gKmfcYw" name="第 4 页">
    <mxGraphModel dx="1092" dy="224" grid="1" gridSize="10" guides="1" tooltips="1" connect="1" arrows="1" fold="1" page="1" pageScale="1" pageWidth="1654" pageHeight="2336" math="0" shadow="0">
      <root>
        <mxCell id="0" />
        <mxCell id="1" parent="0" />
      </root>
    </mxGraphModel>
  </diagram>
</mxfile>
